<svg width="13" height="13" viewBox="0 0 13 13" fill="none" xmlns="http://www.w3.org/2000/svg">
<path d="M6.5 0.25C9.95187 0.25 12.75 3.04813 12.75 6.5C12.75 9.95187 9.95187 12.75 6.5 12.75C3.04813 12.75 0.25 9.95187 0.25 6.5C0.25 3.04813 3.04813 0.25 6.5 0.25ZM6.5 8.375C6.33424 8.375 6.17527 8.44085 6.05806 8.55806C5.94085 8.67527 5.875 8.83424 5.875 9C5.875 9.16576 5.94085 9.32473 6.05806 9.44194C6.17527 9.55915 6.33424 9.625 6.5 9.625C6.66576 9.625 6.82473 9.55915 6.94194 9.44194C7.05915 9.32473 7.125 9.16576 7.125 9C7.125 8.83424 7.05915 8.67527 6.94194 8.55806C6.82473 8.44085 6.66576 8.375 6.5 8.375ZM6.5 2.75C6.34692 2.75002 6.19916 2.80622 6.08477 2.90795C5.97037 3.00967 5.89729 3.14984 5.87937 3.30187L5.875 3.375V7.125C5.87518 7.2843 5.93617 7.43752 6.04553 7.55336C6.15489 7.66919 6.30435 7.7389 6.46337 7.74823C6.6224 7.75757 6.77899 7.70583 6.90114 7.60358C7.0233 7.50134 7.10181 7.35631 7.12063 7.19812L7.125 7.125V3.375C7.125 3.20924 7.05915 3.05027 6.94194 2.93306C6.82473 2.81585 6.66576 2.75 6.5 2.75Z" fill="#FFC700"/>
</svg>
